<?xml version="1.0" standalone="no"?>
<!DOCTYPE svg PUBLIC "-//W3C//DTD SVG 20010904//EN"
 "http://www.w3.org/TR/2001/REC-SVG-20010904/DTD/svg10.dtd">
<svg version="1.0" xmlns="http://www.w3.org/2000/svg"
 width="640.000000pt" height="640.000000pt" viewBox="0 0 640.000000 640.000000"
 preserveAspectRatio="xMidYMid meet">
<metadata>
Created by potrace 1.11, written by Peter Selinger 2001-2013
</metadata>
<g transform="translate(0.000000,640.000000) scale(0.100000,-0.100000)"
fill="#000000" stroke="none">
<path d="M560 5539 l0 -826 2640 0 2640 0 -2 825 -3 825 -2638 1 -2637 1 0
-826z"/>
<path d="M570 4332 c-7 -3 -10 -651 -10 -1918 0 -1816 1 -1914 18 -1915 9 0
479 -1 1043 -1 l1027 0 228 -179 c126 -99 236 -185 244 -192 8 -7 31 -23 50
-37 19 -13 44 -32 54 -42 15 -14 22 -15 35 -5 47 34 177 132 181 137 7 8 62
51 100 80 18 14 68 52 109 85 42 34 103 81 136 107 l60 45 998 -1 997 -1 0
1920 0 1920 -2630 0 c-1446 0 -2634 -1 -2640 -3z"/>
</g>
</svg>
