<svg viewBox="0 0 107 41" fill="none" xmlns="http://www.w3.org/2000/svg">
<path d="M107 2.83917H73.4314V37.4748H107V2.83917Z" fill="black"/>
<path fill-rule="evenodd" clip-rule="evenodd" d="M90.2162 27.3962L81.1123 7.23931L90.2157 0.000549316L90.2162 27.3962Z" fill="#F9B816"/>
<path fill-rule="evenodd" clip-rule="evenodd" d="M90.2157 27.3962L99.3191 7.23876L90.2157 0V27.3962Z" fill="#F36C24"/>
<path d="M70.3754 3.18536H37.1493V37.5299H70.3754V3.18536Z" fill="black"/>
<path fill-rule="evenodd" clip-rule="evenodd" d="M44.7176 23.7608L44.7155 3.20945L55.1333 0.394928L44.7176 23.7608Z" fill="#F9B816"/>
<path fill-rule="evenodd" clip-rule="evenodd" d="M44.6777 23.7965L59.9509 10.0465L55.0719 0.421173L44.6777 23.7965Z" fill="#F36C24"/>
<path fill-rule="evenodd" clip-rule="evenodd" d="M62.6868 17.0366L62.6884 37.5879L52.2706 40.4019L62.6868 17.0366Z" fill="#F36C24"/>
<path fill-rule="evenodd" clip-rule="evenodd" d="M62.7267 17.0009L47.4529 30.751L52.3319 40.3757L62.7267 17.0009Z" fill="#F9B816"/>
<path d="M33.5686 12.9166H0V36.8872H33.5686V12.9166Z" fill="black"/>
<path d="M33.5686 0.234436H16.7843V10.5474H33.5686V0.234436Z" fill="black"/>
<path d="M16.7843 0.234436H0V10.5474H16.7843V0.234436Z" fill="#F9B816"/>
<path fill-rule="evenodd" clip-rule="evenodd" d="M7.53821 3.16122L7.53878 7.6206H7.20986C6.92018 7.6206 6.6853 7.85558 6.6853 8.14511V8.21172C6.6853 8.50125 6.92018 8.73623 7.20981 8.73623H9.71681C10.0065 8.73623 10.2413 8.50125 10.2413 8.21172V8.14458C10.2413 7.85505 10.0065 7.62007 9.71681 7.62007H9.38789V3.16122H9.71702C10.0067 3.16122 10.2415 2.92624 10.2415 2.63671V2.57062C10.2415 2.28109 10.0067 2.04611 9.71702 2.04611H7.20986C6.92018 2.04611 6.6853 2.28109 6.6853 2.57062V2.63671C6.6853 2.92624 6.92018 3.16122 7.20981 3.16122H7.53821Z" fill="black"/>
<path fill-rule="evenodd" clip-rule="evenodd" d="M22.4741 4.98914C22.4741 3.51579 23.0973 2.04611 24.997 2.04611C26.8967 2.04611 27.52 3.45337 27.52 4.98914C27.52 5.84566 27.361 6.73366 26.8711 7.35206L27.2659 7.59857C27.5852 7.79841 27.5967 8.25945 27.2876 8.47398L27.0934 8.6093C26.9728 8.69322 26.8222 8.72155 26.6892 8.65913C26.5739 8.6051 26.4168 8.51804 26.2284 8.38062C26.059 8.25683 25.9477 8.13672 25.8753 8.03811C25.6205 8.12046 25.3292 8.16609 24.997 8.16714C22.9846 8.17448 22.4741 6.46248 22.4741 4.98914ZM24.0359 5.02952C24.0359 4.06652 24.2733 3.10562 24.997 3.10562C25.7207 3.10562 25.9581 4.02561 25.9581 5.02952C25.9581 6.03396 25.7636 7.10291 24.997 7.10763C24.2304 7.11235 24.0359 5.99305 24.0359 5.02952Z" fill="white"/>
<path fill-rule="evenodd" clip-rule="evenodd" d="M16.7838 12.9166L25.8877 32.7063L16.7844 39.8134L16.7838 12.9166Z" fill="#F36C24"/>
<path fill-rule="evenodd" clip-rule="evenodd" d="M16.7843 12.9166L7.68097 32.7068L16.7843 39.814V12.9166Z" fill="#F9B816"/>
</svg>
