<svg viewBox="0 0 60 60">
  <g fill="rgb(255,255,255)" fill-rule="nonzero">
    <path d="m58 52h-10.065l-10.979-24.3c1.1668953-1.4210147 1.8682962-3.1666616 2.009-5l5.548-2.333c1.4734698 2.9855722 3.1240799 5.880401 4.943 8.669.5130599.7738415 1.4237679 1.1857418 2.3436888 1.0600172.9199209-.1257247 1.686708-.7668866 1.9733112-1.6500172 3.1617005-9.2193337 1.2115858-19.42329861-5.127-26.827-.8060503-.92831028-2.1818116-1.10071144-3.192-.4l-2.626 1.82c-.4122238.28335934-.7244082.68968907-.892 1.161-.8246267 2.27316908-1.2967514 4.65908473-1.4 7.075l-5.745 3.125c-2.7528655-1.7450873-6.2352284-1.8613322-9.0983417-.3037121-2.8631134 1.55762-4.6573004 4.5444673-4.6876583 7.8037121l-13.385 7.272c-1.06450241.5784795-1.69446183 1.7240799-1.61275902 2.9328514.0817028 1.2087715.86009393 2.2591792 1.99275902 2.6891486v12.206h-1c-1.65685425 0-3 1.3431458-3 3v2h-2c-1.1045695 0-2 .8954305-2 2v4c0 1.1045695.8954305 2 2 2h56c1.1045695 0 2-.8954305 2-2v-4c0-1.1045695-.8954305-2-2-2zm-43.741 0 10.318-22.834c1.0705962.8172965 2.3117123 1.3826521 3.631 1.654l-3.059 6.774-.014.031-6.49 14.375zm10.192-8h11.093l1.356 3h-13.8zm.9-2 1.354-3h6.58l1.353 3zm2.258-5 2.391-5.289 2.386 5.289zm-5.416 12h15.607l1.353 3h-18.314zm19.153 3-4.233-9.382-.006-.015-5.316-11.783c1.3196601-.2711398 2.5611466-.8365084 3.632-1.654l10.318 22.834zm-2.471-31.433c-.2913434-1.8113273-1.1310857-3.4897649-2.406-4.809l4.615-2.507 2.55 5.314zm4.941-15.691c.0287224-.07811493.0816214-.14502687.151-.191l2.626-1.821c.1734024-.11856474.4081153-.08847334.546.07 5.8750905 6.87420941 7.6750848 16.3435792 4.732 24.894-.0353329.1006097-.1065481.1846437-.2.236-.1882117.1096691-.4293258.0530139-.549-.129-1.9496381-2.9860548-3.7013953-6.0967267-5.244-9.312l-.006-.008-3.347-6.974c.0593694-2.31022422.4954361-4.59526759 1.291-6.765zm-13.816 10.124c3.1531296-.0056996 5.9208805 2.0974272 6.7601414 5.1368186.8392608 3.0393913-.4571475 6.264746-3.1664351 7.8778236s-6.1626423 1.2156753-8.4347063-.9706422c-.021-.022-.043-.04-.065-.059-2.027905-1.9907605-2.6496658-5.0106339-1.5731146-7.64057 1.0765512-2.629936 3.6373688-4.3470368 6.4791146-4.34443zm-21.423 15.928 12.665-6.887c.2796475 1.1935477.8017993 2.316821 1.534 3.3l-13.242 5.576c-.54270653.2285545-1.1692978-.0086385-1.42461427-.5392806-.25531648-.5306421-.04964465-1.1682754.46761427-1.4497194zm1.423 3.928c.1042187-.0260021.2070227-.0573773.308-.094l11.792-4.962-8.483 18.764c-.5209033-.9604704-1.5243752-1.5601762-2.617-1.564h-1zm-4 15.144c0-.5522847.44771525-1 1-1h4c.5522847 0 1 .4477153 1 1v2h-6zm-4 8v-4h56v4z"/>
    <path d="m28.465 26.734c.0770573.0354296.158412.0606428.242.075.4206229.1207241.855437.1849542 1.293.191 1.7974602-.0063912 3.4522876-.979954 4.331-2.548.0544184-.0743658.0984876-.155776.131-.242.3487244-.6848165.5329362-1.4415232.538-2.21.0125759-2.563534-1.915705-4.7212674-4.4645298-4.9957791s-4.892336 1.4231443-5.4259085 3.9305663.9156792 5.0121676 3.3554383 5.7992128zm1.535-7.734c1.6568542 0 3 1.3431458 3 3s-1.3431458 3-3 3-3-1.3431458-3-3 1.3431458-3 3-3z"/>
    <path d="m49.561 33.713c-.707.932-3.561 5.169-3.561 7.358 0 2.7614237 2.2385763 5 5 5s5-2.2385763 5-5c0-2.189-2.854-6.426-3.561-7.357-.3537314-.4304975-.8815799-.6800702-1.4387638-.6802638s-1.0852057.2490122-1.4392362.6792638zm1.439 10.287c-1.6362974.0172332-2.9780444-1.2927592-3-2.929 0-1.108 1.737-4.214 3-5.942 1.263 1.728 3 4.833 3 5.942-.0219556 1.6362408-1.3637026 2.9462332-3 2.929z"/>
  </g>
</svg>